#usda 1.0
(
    defaultPrim = "root"
    doc = """Generated from Composed Stage of root layer D:\\repositories\\python-usd-viewer\\examples\\assets\\display_color_vtk.usda
"""
    endTimeCode = 300
    framesPerSecond = 30
    startTimeCode = 0
)

def Xform "root"
{
    def Mesh "mesh"
    {
        int[] faceVertexCounts = [4]
        int[] faceVertexIndices = [0, 2, 3, 1]
        normal3f[] normals = [(0, 1, 0), (0, 1, 0), (0, 1, 0), (0, 1, 0)]
        point3f[] points = [(-5, 0, 5), (-5, 0, -5), (5, 0, 5), (5, 0, -5)]
        color3f[] primvars:displayColor = [(0, 1, 0)]
        uniform token subdivisionScheme = "none"
    }

    def "sphere_vtk"
    {
        custom asset Asset
    }
}

def Mesh "stress"
{
    int[] faceVertexCounts = [4, 4, 4, 4, 4, 4, 4, 4, 4, 4, 4, 4, 4, 4, 4, 4, 4, 4, 4, 4, 4, 4, 4, 4, 4, 4, 4, 4, 4, 4, 4, 4, 4, 4, 4, 4, 4, 4, 4, 4, 4, 4, 4, 4, 4, 4, 4, 4, 4, 4, 4, 4, 4, 4, 4, 4, 4, 4, 4, 4, 4, 4, 4, 4, 4, 4, 4, 4, 4, 4, 4, 4, 4, 4, 4, 4, 4, 4, 4, 4, 4, 4, 4, 4, 4, 4, 4, 4, 4, 4, 4, 4, 4, 4, 4, 4, 4, 4, 4, 4, 4, 4, 4, 4, 4, 4, 4, 4, 4, 4, 4, 4, 4, 4, 4, 4, 4, 4, 4, 4, 4, 4, 4, 4, 4, 4, 4, 4, 4, 4, 4, 4, 4, 4, 4, 4, 4, 4, 4, 4, 4, 4, 4, 4, 4, 4, 4, 4, 4, 4, 4, 4, 4, 4, 4, 4, 4, 4, 4, 4, 4, 4, 4, 4, 4, 4, 4, 4, 4, 4, 4, 4, 4, 4, 4, 4, 4, 4, 4, 4, 4, 4, 4, 4, 4, 4, 4, 4, 4, 4, 4, 4, 4, 4, 4, 4, 4, 4, 4, 4, 4, 4, 4, 4, 4, 4, 4, 4, 4, 4, 4, 4, 4, 4, 4, 4, 4, 4, 4, 4, 4, 4, 4, 4, 4, 4, 4, 4, 4, 4, 4, 4, 4, 4, 4, 4, 4, 4, 4, 4, 4, 4, 4, 4, 4, 4, 4, 4, 4, 4, 4, 4, 4, 4, 4, 4, 4, 4, 4, 4, 4, 4, 4, 4, 4, 4, 4, 4, 4, 4, 4, 4, 4, 4, 4, 4, 4, 4, 4, 4, 4, 4, 4, 4, 4, 4, 4, 4, 4, 4, 4, 4, 4, 4, 4, 4, 4, 4, 4, 4, 4, 4, 4, 4, 4, 4, 4, 4, 4, 4, 4, 4, 4, 4, 4, 4, 4, 4, 4, 4, 4, 4, 4, 4, 4, 4, 4, 4, 4, 4, 4, 4, 4, 4, 4, 4, 4, 4, 4, 4, 4, 4, 4, 4, 4, 4, 4, 4, 4, 4, 4, 4, 4, 4, 4, 4, 4, 4, 4, 4, 4, 4, 4, 4, 4, 4, 4, 4, 4, 4, 4, 4, 4, 4, 4, 4, 4, 4, 4, 4, 4, 4, 4, 4, 4, 4, 4, 4, 4, 4, 4, 4, 4, 4, 4, 4, 4, 4, 4, 4, 4, 4, 4, 4, 4, 4, 4, 4, 4, 4, 4, 4, 4, 4, 4, 4, 4, 4, 4, 4, 4, 4, 4, 4, 4, 4, 4, 4, 4, 4, 4, 4, 4, 4, 4, 4, 4, 4, 4, 4, 4, 4, 4, 4, 4, 4, 4, 4, 4, 4, 4, 4, 4, 4, 4, 4, 4, 4, 4, 4, 4, 4, 4, 4, 4, 4, 4, 4, 4, 4, 4, 4, 4, 4, 4, 4, 4, 4, 4, 4, 4, 4, 4, 4, 4, 4, 4, 4, 4, 4, 4, 4, 4, 4, 4, 4, 4, 4, 4, 4, 4, 4, 4, 4, 4, 4, 4, 4, 4, 4, 4, 4, 4, 4, 4, 4, 4, 4, 4, 4, 4, 4, 4, 4, 4, 4, 4, 4, 4, 4, 4, 4, 4, 4, 4, 4, 4, 4, 4, 4, 4, 4, 4, 4, 4, 4, 4, 4, 4, 4, 4, 4, 4, 4, 4, 4, 4, 4, 4, 4, 4, 4, 4, 4, 4, 4, 4, 4, 4, 4]
    int[] faceVertexIndices = [0, 1, 2, 3, 0, 4, 5, 1, 0, 3, 6, 7, 0, 7, 8, 4, 7, 6, 9, 10, 7, 10, 11, 8, 10, 9, 12, 13, 10, 13, 14, 11, 13, 12, 15, 16, 13, 16, 17, 14, 16, 15, 18, 19, 16, 19, 20, 17, 19, 18, 21, 22, 19, 22, 23, 20, 22, 21, 24, 25, 22, 25, 26, 23, 25, 24, 27, 28, 25, 28, 29, 26, 28, 27, 30, 31, 28, 31, 32, 29, 31, 30, 33, 34, 31, 34, 35, 32, 34, 33, 36, 37, 34, 37, 38, 35, 37, 36, 39, 40, 37, 40, 41, 38, 40, 39, 42, 43, 40, 43, 44, 41, 43, 42, 45, 46, 43, 46, 47, 44, 4, 48, 49, 5, 4, 8, 50, 48, 8, 11, 51, 50, 11, 14, 52, 51, 14, 17, 53, 52, 17, 20, 54, 53, 20, 23, 55, 54, 23, 26, 56, 55, 26, 29, 57, 56, 29, 32, 58, 57, 32, 35, 59, 58, 35, 38, 60, 59, 38, 41, 61, 60, 41, 44, 62, 61, 44, 47, 63, 62, 48, 64, 65, 49, 48, 50, 66, 64, 50, 51, 67, 66, 51, 52, 68, 67, 52, 53, 69, 68, 53, 54, 70, 69, 54, 55, 71, 70, 55, 56, 72, 71, 56, 57, 73, 72, 57, 58, 74, 73, 58, 59, 75, 74, 59, 60, 76, 75, 60, 61, 77, 76, 61, 62, 78, 77, 62, 63, 79, 78, 64, 80, 81, 65, 64, 66, 82, 80, 66, 67, 83, 82, 67, 68, 84, 83, 68, 69, 85, 84, 69, 70, 86, 85, 70, 71, 87, 86, 71, 72, 88, 87, 72, 73, 89, 88, 73, 74, 90, 89, 74, 75, 91, 90, 75, 76, 92, 91, 76, 77, 93, 92, 77, 78, 94, 93, 78, 79, 95, 94, 80, 96, 97, 81, 80, 82, 98, 96, 82, 83, 99, 98, 83, 84, 100, 99, 84, 85, 101, 100, 85, 86, 102, 101, 86, 87, 103, 102, 87, 88, 104, 103, 88, 89, 105, 104, 89, 90, 106, 105, 90, 91, 107, 106, 91, 92, 108, 107, 92, 93, 109, 108, 93, 94, 110, 109, 94, 95, 111, 110, 96, 112, 113, 97, 96, 98, 114, 112, 98, 99, 115, 114, 99, 100, 116, 115, 100, 101, 117, 116, 101, 102, 118, 117, 102, 103, 119, 118, 103, 104, 120, 119, 104, 105, 121, 120, 105, 106, 122, 121, 106, 107, 123, 122, 107, 108, 124, 123, 108, 109, 125, 124, 109, 110, 126, 125, 110, 111, 127, 126, 112, 128, 129, 113, 112, 114, 130, 128, 114, 115, 131, 130, 115, 116, 132, 131, 116, 117, 133, 132, 117, 118, 134, 133, 118, 119, 135, 134, 119, 120, 136, 135, 120, 121, 137, 136, 121, 122, 138, 137, 122, 123, 139, 138, 123, 124, 140, 139, 124, 125, 141, 140, 125, 126, 142, 141, 126, 127, 143, 142, 128, 144, 145, 129, 128, 130, 146, 144, 130, 131, 147, 146, 131, 132, 148, 147, 132, 133, 149, 148, 133, 134, 150, 149, 134, 135, 151, 150, 135, 136, 152, 151, 136, 137, 153, 152, 137, 138, 154, 153, 138, 139, 155, 154, 139, 140, 156, 155, 140, 141, 157, 156, 141, 142, 158, 157, 142, 143, 159, 158, 144, 160, 161, 145, 144, 146, 162, 160, 146, 147, 163, 162, 147, 148, 164, 163, 148, 149, 165, 164, 149, 150, 166, 165, 150, 151, 167, 166, 151, 152, 168, 167, 152, 153, 169, 168, 153, 154, 170, 169, 154, 155, 171, 170, 155, 156, 172, 171, 156, 157, 173, 172, 157, 158, 174, 173, 158, 159, 175, 174, 160, 176, 177, 161, 160, 162, 178, 176, 162, 163, 179, 178, 163, 164, 180, 179, 164, 165, 181, 180, 165, 166, 182, 181, 166, 167, 183, 182, 167, 168, 184, 183, 168, 169, 185, 184, 169, 170, 186, 185, 170, 171, 187, 186, 171, 172, 188, 187, 172, 173, 189, 188, 173, 174, 190, 189, 174, 175, 191, 190, 176, 192, 193, 177, 176, 178, 194, 192, 178, 179, 195, 194, 179, 180, 196, 195, 180, 181, 197, 196, 181, 182, 198, 197, 182, 183, 199, 198, 183, 184, 200, 199, 184, 185, 201, 200, 185, 186, 202, 201, 186, 187, 203, 202, 187, 188, 204, 203, 188, 189, 205, 204, 189, 190, 206, 205, 190, 191, 207, 206, 192, 208, 209, 193, 192, 194, 210, 208, 194, 195, 211, 210, 195, 196, 212, 211, 196, 197, 213, 212, 197, 198, 214, 213, 198, 199, 215, 214, 199, 200, 216, 215, 200, 201, 217, 216, 201, 202, 218, 217, 202, 203, 219, 218, 203, 204, 220, 219, 204, 205, 221, 220, 205, 206, 222, 221, 206, 207, 223, 222, 208, 224, 225, 209, 208, 210, 226, 224, 210, 211, 227, 226, 211, 212, 228, 227, 212, 213, 229, 228, 213, 214, 230, 229, 214, 215, 231, 230, 215, 216, 232, 231, 216, 217, 233, 232, 217, 218, 234, 233, 218, 219, 235, 234, 219, 220, 236, 235, 220, 221, 237, 236, 221, 222, 238, 237, 222, 223, 239, 238, 224, 240, 241, 225, 224, 226, 242, 240, 226, 227, 243, 242, 227, 228, 244, 243, 228, 229, 245, 244, 229, 230, 246, 245, 230, 231, 247, 246, 231, 232, 248, 247, 232, 233, 249, 248, 233, 234, 250, 249, 234, 235, 251, 250, 235, 236, 252, 251, 236, 237, 253, 252, 237, 238, 254, 253, 238, 239, 255, 254, 256, 257, 258, 259, 256, 259, 260, 261, 256, 262, 263, 257, 256, 261, 264, 262, 259, 258, 265, 266, 259, 266, 267, 260, 266, 265, 268, 269, 266, 269, 270, 267, 269, 268, 271, 272, 269, 272, 273, 270, 272, 271, 274, 275, 272, 275, 276, 273, 275, 274, 277, 278, 275, 278, 279, 276, 278, 277, 280, 281, 278, 281, 282, 279, 281, 280, 283, 284, 281, 284, 285, 282, 284, 283, 286, 287, 284, 287, 288, 285, 287, 286, 289, 290, 287, 290, 291, 288, 290, 289, 292, 293, 290, 293, 294, 291, 293, 292, 295, 296, 293, 296, 297, 294, 296, 295, 298, 299, 296, 299, 300, 297, 299, 298, 301, 302, 299, 302, 303, 300, 257, 304, 305, 258, 257, 263, 306, 304, 258, 305, 307, 265, 265, 307, 308, 268, 268, 308, 309, 271, 271, 309, 310, 274, 274, 310, 311, 277, 277, 311, 312, 280, 280, 312, 313, 283, 283, 313, 314, 286, 286, 314, 315, 289, 289, 315, 316, 292, 292, 316, 317, 295, 295, 317, 318, 298, 298, 318, 319, 301, 304, 320, 321, 305, 304, 306, 322, 320, 305, 321, 323, 307, 307, 323, 324, 308, 308, 324, 325, 309, 309, 325, 326, 310, 310, 326, 327, 311, 311, 327, 328, 312, 312, 328, 329, 313, 313, 329, 330, 314, 314, 330, 331, 315, 315, 331, 332, 316, 316, 332, 333, 317, 317, 333, 334, 318, 318, 334, 335, 319, 320, 336, 337, 321, 320, 322, 338, 336, 321, 337, 339, 323, 323, 339, 340, 324, 324, 340, 341, 325, 325, 341, 342, 326, 326, 342, 343, 327, 327, 343, 344, 328, 328, 344, 345, 329, 329, 345, 346, 330, 330, 346, 347, 331, 331, 347, 348, 332, 332, 348, 349, 333, 333, 349, 350, 334, 334, 350, 351, 335, 336, 352, 353, 337, 336, 338, 354, 352, 337, 353, 355, 339, 339, 355, 356, 340, 340, 356, 357, 341, 341, 357, 358, 342, 342, 358, 359, 343, 343, 359, 360, 344, 344, 360, 361, 345, 345, 361, 362, 346, 346, 362, 363, 347, 347, 363, 364, 348, 348, 364, 365, 349, 349, 365, 366, 350, 350, 366, 367, 351, 352, 368, 369, 353, 352, 354, 370, 368, 353, 369, 371, 355, 355, 371, 372, 356, 356, 372, 373, 357, 357, 373, 374, 358, 358, 374, 375, 359, 359, 375, 376, 360, 360, 376, 377, 361, 361, 377, 378, 362, 362, 378, 379, 363, 363, 379, 380, 364, 364, 380, 381, 365, 365, 381, 382, 366, 366, 382, 383, 367, 368, 384, 385, 369, 368, 370, 386, 384, 369, 385, 387, 371, 371, 387, 388, 372, 372, 388, 389, 373, 373, 389, 390, 374, 374, 390, 391, 375, 375, 391, 392, 376, 376, 392, 393, 377, 377, 393, 394, 378, 378, 394, 395, 379, 379, 395, 396, 380, 380, 396, 397, 381, 381, 397, 398, 382, 382, 398, 399, 383, 384, 400, 401, 385, 384, 386, 402, 400, 385, 401, 403, 387, 387, 403, 404, 388, 388, 404, 405, 389, 389, 405, 406, 390, 390, 406, 407, 391, 391, 407, 408, 392, 392, 408, 409, 393, 393, 409, 410, 394, 394, 410, 411, 395, 395, 411, 412, 396, 396, 412, 413, 397, 397, 413, 414, 398, 398, 414, 415, 399, 400, 416, 417, 401, 400, 402, 418, 416, 401, 417, 419, 403, 403, 419, 420, 404, 404, 420, 421, 405, 405, 421, 422, 406, 406, 422, 423, 407, 407, 423, 424, 408, 408, 424, 425, 409, 409, 425, 426, 410, 410, 426, 427, 411, 411, 427, 428, 412, 412, 428, 429, 413, 413, 429, 430, 414, 414, 430, 431, 415, 416, 432, 433, 417, 416, 418, 434, 432, 417, 433, 435, 419, 419, 435, 436, 420, 420, 436, 437, 421, 421, 437, 438, 422, 422, 438, 439, 423, 423, 439, 440, 424, 424, 440, 441, 425, 425, 441, 442, 426, 426, 442, 443, 427, 427, 443, 444, 428, 428, 444, 445, 429, 429, 445, 446, 430, 430, 446, 447, 431, 432, 448, 449, 433, 432, 434, 450, 448, 433, 449, 451, 435, 435, 451, 452, 436, 436, 452, 453, 437, 437, 453, 454, 438, 438, 454, 455, 439, 439, 455, 456, 440, 440, 456, 457, 441, 441, 457, 458, 442, 442, 458, 459, 443, 443, 459, 460, 444, 444, 460, 461, 445, 445, 461, 462, 446, 446, 462, 463, 447, 448, 464, 465, 449, 448, 450, 466, 464, 449, 465, 467, 451, 451, 467, 468, 452, 452, 468, 469, 453, 453, 469, 470, 454, 454, 470, 471, 455, 455, 471, 472, 456, 456, 472, 473, 457, 457, 473, 474, 458, 458, 474, 475, 459, 459, 475, 476, 460, 460, 476, 477, 461, 461, 477, 478, 462, 462, 478, 479, 463, 464, 480, 481, 465, 464, 466, 482, 480, 465, 481, 483, 467, 467, 483, 484, 468, 468, 484, 485, 469, 469, 485, 486, 470, 470, 486, 487, 471, 471, 487, 488, 472, 472, 488, 489, 473, 473, 489, 490, 474, 474, 490, 491, 475, 475, 491, 492, 476, 476, 492, 493, 477, 477, 493, 494, 478, 478, 494, 495, 479, 480, 496, 497, 481, 480, 482, 498, 496, 481, 497, 499, 483, 483, 499, 500, 484, 484, 500, 501, 485, 485, 501, 502, 486, 486, 502, 503, 487, 487, 503, 504, 488, 488, 504, 505, 489, 489, 505, 506, 490, 490, 506, 507, 491, 491, 507, 508, 492, 492, 508, 509, 493, 493, 509, 510, 494, 494, 510, 511, 495, 300, 303, 512, 513, 300, 513, 514, 297, 297, 514, 515, 294, 294, 515, 516, 291, 291, 516, 517, 288, 288, 517, 518, 285, 285, 518, 519, 282, 282, 519, 520, 279, 496, 521, 522, 497, 496, 498, 523, 521, 497, 522, 524, 499, 499, 524, 525, 500, 500, 525, 526, 501, 501, 526, 527, 502, 502, 527, 528, 503, 503, 528, 529, 504, 498, 482, 530, 523, 262, 531, 532, 263, 262, 264, 533, 531, 263, 532, 534, 306, 306, 534, 535, 322, 322, 535, 536, 338, 338, 536, 537, 354, 354, 537, 538, 370, 370, 538, 539, 386, 264, 261, 540, 533, 303, 302, 541, 512, 495, 511, 542, 543, 495, 543, 544, 479, 479, 544, 545, 463, 463, 545, 546, 447, 447, 546, 547, 431, 431, 547, 548, 415, 415, 548, 549, 399, 399, 549, 550, 383, 511, 510, 551, 542, 541, 302, 301, 552, 541, 552, 209, 225, 541, 225, 241, 512, 552, 301, 319, 553, 552, 553, 193, 209, 553, 319, 335, 554, 553, 554, 177, 193, 554, 335, 351, 555, 554, 555, 161, 177, 555, 351, 367, 556, 555, 556, 145, 161, 556, 367, 383, 550, 556, 550, 129, 145, 550, 549, 113, 129, 549, 548, 97, 113, 548, 547, 81, 97, 547, 546, 65, 81, 546, 545, 49, 65, 545, 544, 5, 49, 544, 543, 1, 5, 543, 542, 2, 1, 241, 240, 513, 512, 2, 542, 551, 3, 530, 46, 45, 523, 530, 482, 466, 557, 530, 557, 47, 46, 557, 466, 450, 558, 557, 558, 63, 47, 558, 450, 434, 559, 558, 559, 79, 63, 559, 434, 418, 560, 559, 560, 95, 79, 560, 418, 402, 561, 560, 561, 111, 95, 561, 402, 386, 539, 561, 539, 127, 111, 539, 538, 143, 127, 538, 537, 159, 143, 537, 536, 175, 159, 536, 535, 191, 175, 535, 534, 207, 191, 534, 532, 223, 207, 532, 531, 239, 223, 531, 533, 255, 239, 255, 533, 540, 254, 45, 42, 521, 523, 551, 510, 509, 562, 551, 562, 6, 3, 562, 509, 508, 563, 562, 563, 9, 6, 563, 508, 507, 564, 563, 564, 12, 9, 564, 507, 506, 565, 564, 565, 15, 12, 565, 506, 505, 566, 565, 566, 18, 15, 566, 505, 504, 529, 566, 529, 21, 18, 529, 528, 24, 21, 528, 527, 27, 24, 527, 526, 30, 27, 526, 525, 33, 30, 525, 524, 36, 33, 524, 522, 39, 36, 522, 521, 42, 39, 540, 261, 260, 567, 540, 567, 253, 254, 567, 260, 267, 568, 567, 568, 252, 253, 568, 267, 270, 569, 568, 569, 251, 252, 569, 270, 273, 570, 569, 570, 250, 251, 570, 273, 276, 571, 570, 571, 249, 250, 571, 276, 279, 520, 571, 520, 248, 249, 520, 519, 247, 248, 519, 518, 246, 247, 518, 517, 245, 246, 517, 516, 244, 245, 516, 515, 243, 244, 515, 514, 242, 243, 514, 513, 240, 242]
    point3f[] points = [(-0.26, -0.34, -0.2), (-0.26, -0.46, -0.2), (-0.3, -0.46, -0.2), (-0.3, -0.34, -0.2), (-0.22, -0.34, -0.2), (-0.22, -0.46, -0.2), (-0.3, -0.22, -0.2), (-0.26, -0.22, -0.2), (-0.22, -0.22, -0.2), (-0.3, -0.1, -0.2), (-0.26, -0.1, -0.2), (-0.22, -0.1, -0.2), (-0.3, 0.02, -0.2), (-0.26, 0.02, -0.2), (-0.22, 0.02, -0.2), (-0.3, 0.14, -0.2), (-0.26, 0.14, -0.2), (-0.22, 0.14, -0.2), (-0.3, 0.26, -0.2), (-0.26, 0.26, -0.2), (-0.22, 0.26, -0.2), (-0.3, 0.38, -0.2), (-0.26, 0.38, -0.2), (-0.22, 0.38, -0.2), (-0.3, 0.5, -0.2), (-0.26, 0.5, -0.2), (-0.22, 0.5, -0.2), (-0.3, 0.62, -0.2), (-0.26, 0.62, -0.2), (-0.22, 0.62, -0.2), (-0.3, 0.74, -0.2), (-0.26, 0.74, -0.2), (-0.22, 0.74, -0.2), (-0.3, 0.86, -0.2), (-0.26, 0.86, -0.2), (-0.22, 0.86, -0.2), (-0.3, 0.98, -0.2), (-0.26, 0.98, -0.2), (-0.22, 0.98, -0.2), (-0.3, 1.1, -0.2), (-0.26, 1.1, -0.2), (-0.22, 1.1, -0.2), (-0.3, 1.22, -0.2), (-0.26, 1.22, -0.2), (-0.22, 1.22, -0.2), (-0.3, 1.34, -0.2), (-0.26, 1.34, -0.2), (-0.22, 1.34, -0.2), (-0.18, -0.34, -0.2), (-0.18, -0.46, -0.2), (-0.18, -0.22, -0.2), (-0.18, -0.1, -0.2), (-0.18, 0.02, -0.2), (-0.18, 0.14, -0.2), (-0.18, 0.26, -0.2), (-0.18, 0.38, -0.2), (-0.18, 0.5, -0.2), (-0.18, 0.62, -0.2), (-0.18, 0.74, -0.2), (-0.18, 0.86, -0.2), (-0.18, 0.98, -0.2), (-0.18, 1.1, -0.2), (-0.18, 1.22, -0.2), (-0.18, 1.34, -0.2), (-0.14, -0.34, -0.2), (-0.14, -0.46, -0.2), (-0.14, -0.22, -0.2), (-0.14, -0.1, -0.2), (-0.14, 0.02, -0.2), (-0.14, 0.14, -0.2), (-0.14, 0.26, -0.2), (-0.14, 0.38, -0.2), (-0.14, 0.5, -0.2), (-0.14, 0.62, -0.2), (-0.14, 0.74, -0.2), (-0.14, 0.86, -0.2), (-0.14, 0.98, -0.2), (-0.14, 1.1, -0.2), (-0.14, 1.22, -0.2), (-0.14, 1.34, -0.2), (-0.1, -0.34, -0.2), (-0.1, -0.46, -0.2), (-0.1, -0.22, -0.2), (-0.1, -0.1, -0.2), (-0.1, 0.02, -0.2), (-0.1, 0.14, -0.2), (-0.1, 0.26, -0.2), (-0.1, 0.38, -0.2), (-0.1, 0.5, -0.2), (-0.1, 0.62, -0.2), (-0.1, 0.74, -0.2), (-0.1, 0.86, -0.2), (-0.1, 0.98, -0.2), (-0.1, 1.1, -0.2), (-0.1, 1.22, -0.2), (-0.1, 1.34, -0.2), (-0.06, -0.34, -0.2), (-0.06, -0.46, -0.2), (-0.06, -0.22, -0.2), (-0.06, -0.1, -0.2), (-0.06, 0.02, -0.2), (-0.06, 0.14, -0.2), (-0.06, 0.26, -0.2), (-0.06, 0.38, -0.2), (-0.06, 0.5, -0.2), (-0.06, 0.62, -0.2), (-0.06, 0.74, -0.2), (-0.06, 0.86, -0.2), (-0.06, 0.98, -0.2), (-0.06, 1.1, -0.2), (-0.06, 1.22, -0.2), (-0.06, 1.34, -0.2), (-0.02, -0.34, -0.2), (-0.02, -0.46, -0.2), (-0.02, -0.22, -0.2), (-0.02, -0.1, -0.2), (-0.02, 0.02, -0.2), (-0.02, 0.14, -0.2), (-0.02, 0.26, -0.2), (-0.02, 0.38, -0.2), (-0.02, 0.5, -0.2), (-0.02, 0.62, -0.2), (-0.02, 0.74, -0.2), (-0.02, 0.86, -0.2), (-0.02, 0.98, -0.2), (-0.02, 1.1, -0.2), (-0.02, 1.22, -0.2), (-0.02, 1.34, -0.2), (0.02, -0.34, -0.2), (0.02, -0.46, -0.2), (0.02, -0.22, -0.2), (0.02, -0.1, -0.2), (0.02, 0.02, -0.2), (0.02, 0.14, -0.2), (0.02, 0.26, -0.2), (0.02, 0.38, -0.2), (0.02, 0.5, -0.2), (0.02, 0.62, -0.2), (0.02, 0.74, -0.2), (0.02, 0.86, -0.2), (0.02, 0.98, -0.2), (0.02, 1.1, -0.2), (0.02, 1.22, -0.2), (0.02, 1.34, -0.2), (0.06, -0.34, -0.2), (0.06, -0.46, -0.2), (0.06, -0.22, -0.2), (0.06, -0.1, -0.2), (0.06, 0.02, -0.2), (0.06, 0.14, -0.2), (0.06, 0.26, -0.2), (0.06, 0.38, -0.2), (0.06, 0.5, -0.2), (0.06, 0.62, -0.2), (0.06, 0.74, -0.2), (0.06, 0.86, -0.2), (0.06, 0.98, -0.2), (0.06, 1.1, -0.2), (0.06, 1.22, -0.2), (0.06, 1.34, -0.2), (0.1, -0.34, -0.2), (0.1, -0.46, -0.2), (0.1, -0.22, -0.2), (0.1, -0.1, -0.2), (0.1, 0.02, -0.2), (0.1, 0.14, -0.2), (0.1, 0.26, -0.2), (0.1, 0.38, -0.2), (0.1, 0.5, -0.2), (0.1, 0.62, -0.2), (0.1, 0.74, -0.2), (0.1, 0.86, -0.2), (0.1, 0.98, -0.2), (0.1, 1.1, -0.2), (0.1, 1.22, -0.2), (0.1, 1.34, -0.2), (0.14, -0.34, -0.2), (0.14, -0.46, -0.2), (0.14, -0.22, -0.2), (0.14, -0.1, -0.2), (0.14, 0.02, -0.2), (0.14, 0.14, -0.2), (0.14, 0.26, -0.2), (0.14, 0.38, -0.2), (0.14, 0.5, -0.2), (0.14, 0.62, -0.2), (0.14, 0.74, -0.2), (0.14, 0.86, -0.2), (0.14, 0.98, -0.2), (0.14, 1.1, -0.2), (0.14, 1.22, -0.2), (0.14, 1.34, -0.2), (0.18, -0.34, -0.2), (0.18, -0.46, -0.2), (0.18, -0.22, -0.2), (0.18, -0.1, -0.2), (0.18, 0.02, -0.2), (0.18, 0.14, -0.2), (0.18, 0.26, -0.2), (0.18, 0.38, -0.2), (0.18, 0.5, -0.2), (0.18, 0.62, -0.2), (0.18, 0.74, -0.2), (0.18, 0.86, -0.2), (0.18, 0.98, -0.2), (0.18, 1.1, -0.2), (0.18, 1.22, -0.2), (0.18, 1.34, -0.2), (0.22, -0.34, -0.2), (0.22, -0.46, -0.2), (0.22, -0.22, -0.2), (0.22, -0.1, -0.2), (0.22, 0.02, -0.2), (0.22, 0.14, -0.2), (0.22, 0.26, -0.2), (0.22, 0.38, -0.2), (0.22, 0.5, -0.2), (0.22, 0.62, -0.2), (0.22, 0.74, -0.2), (0.22, 0.86, -0.2), (0.22, 0.98, -0.2), (0.22, 1.1, -0.2), (0.22, 1.22, -0.2), (0.22, 1.34, -0.2), (0.26, -0.34, -0.2), (0.26, -0.46, -0.2), (0.26, -0.22, -0.2), (0.26, -0.1, -0.2), (0.26, 0.02, -0.2), (0.26, 0.14, -0.2), (0.26, 0.26, -0.2), (0.26, 0.38, -0.2), (0.26, 0.5, -0.2), (0.26, 0.62, -0.2), (0.26, 0.74, -0.2), (0.26, 0.86, -0.2), (0.26, 0.98, -0.2), (0.26, 1.1, -0.2), (0.26, 1.22, -0.2), (0.26, 1.34, -0.2), (0.3, -0.34, -0.2), (0.3, -0.46, -0.2), (0.3, -0.22, -0.2), (0.3, -0.1, -0.2), (0.3, 0.02, -0.2), (0.3, 0.14, -0.2), (0.3, 0.26, -0.2), (0.3, 0.38, -0.2), (0.3, 0.5, -0.2), (0.3, 0.62, -0.2), (0.3, 0.74, -0.2), (0.3, 0.86, -0.2), (0.3, 0.98, -0.2), (0.3, 1.1, -0.2), (0.3, 1.22, -0.2), (0.3, 1.34, -0.2), (0.26, 1.22, -0.18), (0.22, 1.22, -0.18), (0.22, 1.1, -0.18), (0.26, 1.1, -0.18), (0.3, 1.1, -0.18), (0.3, 1.22, -0.18), (0.26, 1.34, -0.18), (0.22, 1.34, -0.18), (0.3, 1.34, -0.18), (0.22, 0.98, -0.18), (0.26, 0.98, -0.18), (0.3, 0.98, -0.18), (0.22, 0.86, -0.18), (0.26, 0.86, -0.18), (0.3, 0.86, -0.18), (0.22, 0.74, -0.18), (0.26, 0.74, -0.18), (0.3, 0.74, -0.18), (0.22, 0.62, -0.18), (0.26, 0.62, -0.18), (0.3, 0.62, -0.18), (0.22, 0.5, -0.18), (0.26, 0.5, -0.18), (0.3, 0.5, -0.18), (0.22, 0.38, -0.18), (0.26, 0.38, -0.18), (0.3, 0.38, -0.18), (0.22, 0.26, -0.18), (0.26, 0.26, -0.18), (0.3, 0.26, -0.18), (0.22, 0.14, -0.18), (0.26, 0.14, -0.18), (0.3, 0.14, -0.18), (0.22, 0.02, -0.18), (0.26, 0.02, -0.18), (0.3, 0.02, -0.18), (0.22, -0.1, -0.18), (0.26, -0.1, -0.18), (0.3, -0.1, -0.18), (0.22, -0.22, -0.18), (0.26, -0.22, -0.18), (0.3, -0.22, -0.18), (0.22, -0.34, -0.18), (0.26, -0.34, -0.18), (0.3, -0.34, -0.18), (0.22, -0.46, -0.18), (0.26, -0.46, -0.18), (0.3, -0.46, -0.18), (0.18, 1.22, -0.18), (0.18, 1.1, -0.18), (0.18, 1.34, -0.18), (0.18, 0.98, -0.18), (0.18, 0.86, -0.18), (0.18, 0.74, -0.18), (0.18, 0.62, -0.18), (0.18, 0.5, -0.18), (0.18, 0.38, -0.18), (0.18, 0.26, -0.18), (0.18, 0.14, -0.18), (0.18, 0.02, -0.18), (0.18, -0.1, -0.18), (0.18, -0.22, -0.18), (0.18, -0.34, -0.18), (0.18, -0.46, -0.18), (0.14, 1.22, -0.18), (0.14, 1.1, -0.18), (0.14, 1.34, -0.18), (0.14, 0.98, -0.18), (0.14, 0.86, -0.18), (0.14, 0.74, -0.18), (0.14, 0.62, -0.18), (0.14, 0.5, -0.18), (0.14, 0.38, -0.18), (0.14, 0.26, -0.18), (0.14, 0.14, -0.18), (0.14, 0.02, -0.18), (0.14, -0.1, -0.18), (0.14, -0.22, -0.18), (0.14, -0.34, -0.18), (0.14, -0.46, -0.18), (0.1, 1.22, -0.18), (0.1, 1.1, -0.18), (0.1, 1.34, -0.18), (0.1, 0.98, -0.18), (0.1, 0.86, -0.18), (0.1, 0.74, -0.18), (0.1, 0.62, -0.18), (0.1, 0.5, -0.18), (0.1, 0.38, -0.18), (0.1, 0.26, -0.18), (0.1, 0.14, -0.18), (0.1, 0.02, -0.18), (0.1, -0.1, -0.18), (0.1, -0.22, -0.18), (0.1, -0.34, -0.18), (0.1, -0.46, -0.18), (0.06, 1.22, -0.18), (0.06, 1.1, -0.18), (0.06, 1.34, -0.18), (0.06, 0.98, -0.18), (0.06, 0.86, -0.18), (0.06, 0.74, -0.18), (0.06, 0.62, -0.18), (0.06, 0.5, -0.18), (0.06, 0.38, -0.18), (0.06, 0.26, -0.18), (0.06, 0.14, -0.18), (0.06, 0.02, -0.18), (0.06, -0.1, -0.18), (0.06, -0.22, -0.18), (0.06, -0.34, -0.18), (0.06, -0.46, -0.18), (0.02, 1.22, -0.18), (0.02, 1.1, -0.18), (0.02, 1.34, -0.18), (0.02, 0.98, -0.18), (0.02, 0.86, -0.18), (0.02, 0.74, -0.18), (0.02, 0.62, -0.18), (0.02, 0.5, -0.18), (0.02, 0.38, -0.18), (0.02, 0.26, -0.18), (0.02, 0.14, -0.18), (0.02, 0.02, -0.18), (0.02, -0.1, -0.18), (0.02, -0.22, -0.18), (0.02, -0.34, -0.18), (0.02, -0.46, -0.18), (-0.02, 1.22, -0.18), (-0.02, 1.1, -0.18), (-0.02, 1.34, -0.18), (-0.02, 0.98, -0.18), (-0.02, 0.86, -0.18), (-0.02, 0.74, -0.18), (-0.02, 0.62, -0.18), (-0.02, 0.5, -0.18), (-0.02, 0.38, -0.18), (-0.02, 0.26, -0.18), (-0.02, 0.14, -0.18), (-0.02, 0.02, -0.18), (-0.02, -0.1, -0.18), (-0.02, -0.22, -0.18), (-0.02, -0.34, -0.18), (-0.02, -0.46, -0.18), (-0.06, 1.22, -0.18), (-0.06, 1.1, -0.18), (-0.06, 1.34, -0.18), (-0.06, 0.98, -0.18), (-0.06, 0.86, -0.18), (-0.06, 0.74, -0.18), (-0.06, 0.62, -0.18), (-0.06, 0.5, -0.18), (-0.06, 0.38, -0.18), (-0.06, 0.26, -0.18), (-0.06, 0.14, -0.18), (-0.06, 0.02, -0.18), (-0.06, -0.1, -0.18), (-0.06, -0.22, -0.18), (-0.06, -0.34, -0.18), (-0.06, -0.46, -0.18), (-0.1, 1.22, -0.18), (-0.1, 1.1, -0.18), (-0.1, 1.34, -0.18), (-0.1, 0.98, -0.18), (-0.1, 0.86, -0.18), (-0.1, 0.74, -0.18), (-0.1, 0.62, -0.18), (-0.1, 0.5, -0.18), (-0.1, 0.38, -0.18), (-0.1, 0.26, -0.18), (-0.1, 0.14, -0.18), (-0.1, 0.02, -0.18), (-0.1, -0.1, -0.18), (-0.1, -0.22, -0.18), (-0.1, -0.34, -0.18), (-0.1, -0.46, -0.18), (-0.14, 1.22, -0.18), (-0.14, 1.1, -0.18), (-0.14, 1.34, -0.18), (-0.14, 0.98, -0.18), (-0.14, 0.86, -0.18), (-0.14, 0.74, -0.18), (-0.14, 0.62, -0.18), (-0.14, 0.5, -0.18), (-0.14, 0.38, -0.18), (-0.14, 0.26, -0.18), (-0.14, 0.14, -0.18), (-0.14, 0.02, -0.18), (-0.14, -0.1, -0.18), (-0.14, -0.22, -0.18), (-0.14, -0.34, -0.18), (-0.14, -0.46, -0.18), (-0.18, 1.22, -0.18), (-0.18, 1.1, -0.18), (-0.18, 1.34, -0.18), (-0.18, 0.98, -0.18), (-0.18, 0.86, -0.18), (-0.18, 0.74, -0.18), (-0.18, 0.62, -0.18), (-0.18, 0.5, -0.18), (-0.18, 0.38, -0.18), (-0.18, 0.26, -0.18), (-0.18, 0.14, -0.18), (-0.18, 0.02, -0.18), (-0.18, -0.1, -0.18), (-0.18, -0.22, -0.18), (-0.18, -0.34, -0.18), (-0.18, -0.46, -0.18), (-0.22, 1.22, -0.18), (-0.22, 1.1, -0.18), (-0.22, 1.34, -0.18), (-0.22, 0.98, -0.18), (-0.22, 0.86, -0.18), (-0.22, 0.74, -0.18), (-0.22, 0.62, -0.18), (-0.22, 0.5, -0.18), (-0.22, 0.38, -0.18), (-0.22, 0.26, -0.18), (-0.22, 0.14, -0.18), (-0.22, 0.02, -0.18), (-0.22, -0.1, -0.18), (-0.22, -0.22, -0.18), (-0.22, -0.34, -0.18), (-0.22, -0.46, -0.18), (-0.26, 1.22, -0.18), (-0.26, 1.1, -0.18), (-0.26, 1.34, -0.18), (-0.26, 0.98, -0.18), (-0.26, 0.86, -0.18), (-0.26, 0.74, -0.18), (-0.26, 0.62, -0.18), (-0.26, 0.5, -0.18), (-0.26, 0.38, -0.18), (-0.26, 0.26, -0.18), (-0.26, 0.14, -0.18), (-0.26, 0.02, -0.18), (-0.26, -0.1, -0.18), (-0.26, -0.22, -0.18), (-0.26, -0.34, -0.18), (-0.26, -0.46, -0.18), (-0.3, 1.22, -0.18), (-0.3, 1.1, -0.18), (-0.3, 1.34, -0.18), (-0.3, 0.98, -0.18), (-0.3, 0.86, -0.18), (-0.3, 0.74, -0.18), (-0.3, 0.62, -0.18), (-0.3, 0.5, -0.18), (-0.3, 0.38, -0.18), (-0.3, 0.26, -0.18), (-0.3, 0.14, -0.18), (-0.3, 0.02, -0.18), (-0.3, -0.1, -0.18), (-0.3, -0.22, -0.18), (-0.3, -0.34, -0.18), (-0.3, -0.46, -0.18), (0.3, -0.46, -0.19), (0.3, -0.34, -0.19), (0.3, -0.22, -0.19), (0.3, -0.1, -0.19), (0.3, 0.02, -0.19), (0.3, 0.14, -0.19), (0.3, 0.26, -0.19), (0.3, 0.38, -0.19), (0.3, 0.5, -0.19), (-0.3, 1.22, -0.19), (-0.3, 1.1, -0.19), (-0.3, 1.34, -0.19), (-0.3, 0.98, -0.19), (-0.3, 0.86, -0.19), (-0.3, 0.74, -0.19), (-0.3, 0.62, -0.19), (-0.3, 0.5, -0.19), (-0.3, 0.38, -0.19), (-0.26, 1.34, -0.19), (0.26, 1.34, -0.19), (0.22, 1.34, -0.19), (0.3, 1.34, -0.19), (0.18, 1.34, -0.19), (0.14, 1.34, -0.19), (0.1, 1.34, -0.19), (0.06, 1.34, -0.19), (0.02, 1.34, -0.19), (-0.02, 1.34, -0.19), (0.3, 1.22, -0.19), (0.26, -0.46, -0.19), (-0.3, -0.46, -0.19), (-0.26, -0.46, -0.19), (-0.22, -0.46, -0.19), (-0.18, -0.46, -0.19), (-0.14, -0.46, -0.19), (-0.1, -0.46, -0.19), (-0.06, -0.46, -0.19), (-0.02, -0.46, -0.19), (0.02, -0.46, -0.19), (-0.3, -0.34, -0.19), (0.22, -0.46, -0.19), (0.18, -0.46, -0.19), (0.14, -0.46, -0.19), (0.1, -0.46, -0.19), (0.06, -0.46, -0.19), (-0.22, 1.34, -0.19), (-0.18, 1.34, -0.19), (-0.14, 1.34, -0.19), (-0.1, 1.34, -0.19), (-0.06, 1.34, -0.19), (-0.3, -0.22, -0.19), (-0.3, -0.1, -0.19), (-0.3, 0.02, -0.19), (-0.3, 0.14, -0.19), (-0.3, 0.26, -0.19), (0.3, 1.1, -0.19), (0.3, 0.98, -0.19), (0.3, 0.86, -0.19), (0.3, 0.74, -0.19), (0.3, 0.62, -0.19)]
    color3f[] primvars:displayColor = [(1, 0, 0), (0, 0.9411765, 1), (0, 0.91764706, 1), (0, 0.16470589, 1), (1, 0.019607844, 0), (0, 0.9411765, 1), (0, 0.16470589, 1), (1, 0, 0), (1, 0.019607844, 0), (0, 0.16470589, 1), (1, 0, 0), (1, 0.02745098, 0), (0, 0.16470589, 1), (1, 0, 0), (1, 0.02745098, 0), (0, 0.18039216, 1), (1, 0, 0), (1, 0.02745098, 0), (0, 0.18039216, 1), (1, 0, 0), (1, 0.03529412, 0), (0, 0.18039216, 1), (1, 0, 0), (1, 0.03529412, 0), (0, 0.42745098, 1), (1, 0, 0), (1, 0.03529412, 0), (0, 0.4509804, 1), (1, 0, 0), (1, 0.03529412, 0), (0, 0.4509804, 1), (1, 0, 0), (1, 0.047058824, 0), (0, 0.4509804, 1), (1, 0.003921569, 0), (1, 0.047058824, 0), (0, 0.4745098, 1), (1, 0.003921569, 0), (1, 0.047058824, 0), (0, 0.4745098, 1), (1, 0.003921569, 0), (1, 0.05882353, 0), (0, 0.4745098, 1), (1, 0.003921569, 0), (1, 0.05882353, 0), (0, 0.69411767, 1), (0, 0.11372549, 1), (0, 0.12941177, 1), (1, 0.08235294, 0), (0, 0.92941177, 1), (1, 0.09803922, 0), (1, 0.09803922, 0), (1, 0.09803922, 0), (1, 0.11372549, 0), (1, 0.11372549, 0), (1, 0.11372549, 0), (1, 0.12941177, 0), (1, 0.12941177, 0), (1, 0.12941177, 0), (1, 0.14509805, 0), (1, 0.14509805, 0), (1, 0.14509805, 0), (1, 0.14509805, 0), (0, 0.12941177, 1), (1, 0.2, 0), (0, 0.92941177, 1), (1, 0.2, 0), (1, 0.22352941, 0), (1, 0.22352941, 0), (1, 0.22352941, 0), (1, 0.22352941, 0), (1, 0.24313726, 0), (1, 0.24313726, 0), (1, 0.24313726, 0), (1, 0.2627451, 0), (1, 0.2627451, 0), (1, 0.2627451, 0), (1, 0.28627452, 0), (1, 0.28627452, 0), (0, 0.12941177, 1), (1, 0.33333334, 0), (0, 0.92941177, 1), (1, 0.35686275, 0), (1, 0.35686275, 0), (1, 0.35686275, 0), (1, 0.38039216, 0), (1, 0.38039216, 0), (1, 0.38039216, 0), (1, 0.40392157, 0), (1, 0.40392157, 0), (1, 0.40392157, 0), (1, 0.40392157, 0), (1, 0.42745098, 0), (1, 0.42745098, 0), (1, 0.42745098, 0), (0, 0.14509805, 1), (1, 0.5019608, 0), (0, 0.91764706, 1), (1, 0.5019608, 0), (1, 0.5254902, 0), (1, 0.5254902, 0), (1, 0.5254902, 0), (1, 0.5254902, 0), (1, 0.54901963, 0), (1, 0.54901963, 0), (1, 0.54901963, 0), (1, 0.5764706, 0), (1, 0.5764706, 0), (1, 0.5764706, 0), (1, 0.6, 0), (1, 0.6, 0), (0, 0.14509805, 1), (1, 0.64705884, 0), (0, 0.91764706, 1), (1, 0.67058825, 0), (1, 0.67058825, 0), (1, 0.67058825, 0), (1, 0.69411767, 0), (1, 0.69411767, 0), (1, 0.69411767, 0), (1, 0.7137255, 0), (1, 0.7137255, 0), (1, 0.7137255, 0), (1, 0.7137255, 0), (1, 0.7372549, 0), (1, 0.7372549, 0), (1, 0.7372549, 0), (0, 0.14509805, 1), (1, 0.8, 0), (0, 0.08235294, 1), (1, 0.8, 0), (1, 0.81960785, 0), (1, 0.81960785, 0), (1, 0.81960785, 0), (1, 0.81960785, 0), (1, 0.8352941, 0), (1, 0.8352941, 0), (1, 0.8352941, 0), (1, 0.85490197, 0), (1, 0.85490197, 0), (1, 0.85490197, 0), (1, 0.87058824, 0), (1, 0.87058824, 0), (0, 0.7137255, 1), (1, 0.9019608, 0), (0, 0.07058824, 1), (1, 0.91764706, 0), (1, 0.91764706, 0), (1, 0.91764706, 0), (1, 0.92941177, 0), (1, 0.92941177, 0), (1, 0.92941177, 0), (1, 0.9411765, 0), (1, 0.9411765, 0), (1, 0.9411765, 0), (1, 0.9411765, 0), (1, 0.9529412, 0), (1, 0.9529412, 0), (1, 0.9529412, 0), (0, 0.7137255, 1), (1, 0.9764706, 0), (0, 0.07058824, 1), (1, 0.9764706, 0), (1, 0.9843137, 0), (1, 0.9843137, 0), (1, 0.9843137, 0), (1, 0.9843137, 0), (1, 0.9882353, 0), (1, 0.9882353, 0), (1, 0.9882353, 0), (1, 0.99215686, 0), (1, 0.99215686, 0), (1, 0.99215686, 0), (1, 0.99607843, 0), (1, 0.99607843, 0), (0, 0.7137255, 1), (0.99607843, 1, 0), (0, 0.07058824, 1), (0.99607843, 1, 0), (0.99607843, 1, 0), (0.99607843, 1, 0), (0.99607843, 1, 0), (0.99607843, 1, 0), (0.99607843, 1, 0), (0.99215686, 1, 0), (0.99215686, 1, 0), (0.99215686, 1, 0), (0.99215686, 1, 0), (0.9882353, 1, 0), (0.9882353, 1, 0), (0.9882353, 1, 0), (0, 0.7372549, 1), (0.9647059, 1, 0), (0, 0.05882353, 1), (0.9647059, 1, 0), (0.95686275, 1, 0), (0.95686275, 1, 0), (0.95686275, 1, 0), (0.95686275, 1, 0), (0.94509804, 1, 0), (0.94509804, 1, 0), (0.94509804, 1, 0), (0.9372549, 1, 0), (0.9372549, 1, 0), (0.9372549, 1, 0), (0.92156863, 1, 0), (0.92156863, 1, 0), (0, 0.7372549, 1), (0.89411765, 1, 0), (0, 0.05882353, 1), (0.8784314, 1, 0), (0.8784314, 1, 0), (0.8784314, 1, 0), (0.8627451, 1, 0), (0.8627451, 1, 0), (0.8627451, 1, 0), (0.84705883, 1, 0), (0.84705883, 1, 0), (0.84705883, 1, 0), (0.84705883, 1, 0), (0.827451, 1, 0), (0.827451, 1, 0), (0.827451, 1, 0), (0, 0.7372549, 1), (0.76862746, 1, 0), (0, 0.05882353, 1), (0.76862746, 1, 0), (0.7490196, 1, 0), (0.7490196, 1, 0), (0.7490196, 1, 0), (0.7490196, 1, 0), (0.7254902, 1, 0), (0.7254902, 1, 0), (0.7254902, 1, 0), (0.7058824, 1, 0), (0.7058824, 1, 0), (0.7058824, 1, 0), (0.68235296, 1, 0), (0.68235296, 1, 0), (0, 0.75686276, 1), (0, 0.22352941, 1), (0, 0.91764706, 1), (0, 0.22352941, 1), (0, 0.22352941, 1), (0, 0.22352941, 1), (0, 0.2, 1), (0, 0.2, 1), (0, 0.2, 1), (0, 0.11372549, 1), (0, 0.11372549, 1), (0, 0.09803922, 1), (0, 0.09803922, 1), (0, 0.09803922, 1), (0, 0.08235294, 1), (0, 0.08235294, 1), (0, 0.69411767, 1), (0.56078434, 1, 0), (0.41568628, 1, 0), (0.41568628, 1, 0), (0.56078434, 1, 0), (0, 0.019607844, 1), (0, 0.011764706, 1), (0, 1, 0.99215686), (0, 1, 0.99215686), (0, 1, 0.99607843), (0.39215687, 1, 0), (0.56078434, 1, 0), (0, 0.019607844, 1), (0.39215687, 1, 0), (0.56078434, 1, 0), (0, 0.019607844, 1), (0.39215687, 1, 0), (0.5372549, 1, 0), (0, 0.019607844, 1), (0.36862746, 1, 0), (0.5372549, 1, 0), (0, 0.02745098, 1), (0.36862746, 1, 0), (0.5372549, 1, 0), (0, 0.02745098, 1), (0.36862746, 1, 0), (0.5137255, 1, 0), (0, 1, 0.9764706), (0.36862746, 1, 0), (0.5137255, 1, 0), (0, 1, 0.9764706), (0.34509805, 1, 0), (0.5137255, 1, 0), (0, 1, 0.9764706), (0.34509805, 1, 0), (0.49019608, 1, 0), (0, 1, 0.9647059), (0.34509805, 1, 0), (0.49019608, 1, 0), (0, 1, 0.9647059), (0.32156864, 1, 0), (0.49019608, 1, 0), (0, 1, 0.9647059), (0.32156864, 1, 0), (0.49019608, 1, 0), (0, 1, 0.95686275), (0, 0.03529412, 1), (0, 0.03529412, 1), (0, 1, 0.99607843), (0.25490198, 1, 0), (0.25490198, 1, 0), (0, 1, 0.99215686), (0.25490198, 1, 0), (0.25490198, 1, 0), (0.23137255, 1, 0), (0.23137255, 1, 0), (0.23137255, 1, 0), (0.21176471, 1, 0), (0.21176471, 1, 0), (0.21176471, 1, 0), (0.19215687, 1, 0), (0.19215687, 1, 0), (0.19215687, 1, 0), (0.19215687, 1, 0), (0, 0.03529412, 1), (0.13725491, 1, 0), (0.13725491, 1, 0), (0, 1, 0.99607843), (0.12156863, 1, 0), (0.12156863, 1, 0), (0.12156863, 1, 0), (0.105882354, 1, 0), (0.105882354, 1, 0), (0.105882354, 1, 0), (0.105882354, 1, 0), (0.09019608, 1, 0), (0.09019608, 1, 0), (0.09019608, 1, 0), (0.07450981, 1, 0), (0.07450981, 1, 0), (0, 0.03529412, 1), (0.043137256, 1, 0), (0.043137256, 1, 0), (0, 1, 0.99607843), (0.043137256, 1, 0), (0.043137256, 1, 0), (0.03137255, 1, 0), (0.03137255, 1, 0), (0.03137255, 1, 0), (0.023529412, 1, 0), (0.023529412, 1, 0), (0.023529412, 1, 0), (0.015686275, 1, 0), (0.015686275, 1, 0), (0.015686275, 1, 0), (0.015686275, 1, 0), (0, 0.047058824, 1), (0, 1, 0), (0, 1, 0), (0, 1, 0.99607843), (0, 1, 0), (0, 1, 0), (0, 1, 0), (0, 1, 0), (0, 1, 0), (0, 1, 0), (0, 1, 0), (0, 1, 0), (0, 1, 0), (0, 1, 0), (0, 1, 0), (0, 1, 0), (0, 0.047058824, 1), (0, 1, 0.011764706), (0, 1, 0.011764706), (0, 1, 0.99607843), (0, 1, 0.011764706), (0, 1, 0.011764706), (0, 1, 0.015686275), (0, 1, 0.015686275), (0, 1, 0.015686275), (0, 1, 0.023529412), (0, 1, 0.023529412), (0, 1, 0.023529412), (0, 1, 0.03137255), (0, 1, 0.03137255), (0, 1, 0.03137255), (0, 1, 0.03137255), (0, 0.047058824, 1), (0, 1, 0.0627451), (0, 1, 0.0627451), (0, 0.011764706, 1), (0, 1, 0.07450981), (0, 1, 0.07450981), (0, 1, 0.07450981), (0, 1, 0.09019608), (0, 1, 0.09019608), (0, 1, 0.09019608), (0, 1, 0.09019608), (0, 1, 0.105882354), (0, 1, 0.105882354), (0, 1, 0.105882354), (0, 1, 0.12156863), (0, 1, 0.12156863), (0, 0.99607843, 1), (0, 1, 0.15294118), (0, 1, 0.17254902), (0, 0.007843138, 1), (0, 1, 0.17254902), (0, 1, 0.17254902), (0, 1, 0.19215687), (0, 1, 0.19215687), (0, 1, 0.19215687), (0, 1, 0.21176471), (0, 1, 0.21176471), (0, 1, 0.21176471), (0, 1, 0.23137255), (0, 1, 0.23137255), (0, 1, 0.23137255), (0, 1, 0.23137255), (0, 0.99607843, 1), (0, 1, 0.29803923), (0, 1, 0.29803923), (0, 0.007843138, 1), (0, 1, 0.32156864), (0, 1, 0.32156864), (0, 1, 0.32156864), (0, 1, 0.32156864), (0, 1, 0.34509805), (0, 1, 0.34509805), (0, 1, 0.34509805), (0, 1, 0.36862746), (0, 1, 0.36862746), (0, 1, 0.36862746), (0, 1, 0.39215687), (0, 1, 0.39215687), (0, 1, 0.99607843), (0, 1, 0.4392157), (0, 1, 0.4627451), (0, 0.007843138, 1), (0, 1, 0.4627451), (0, 1, 0.4627451), (0, 1, 0.49019608), (0, 1, 0.49019608), (0, 1, 0.49019608), (0, 1, 0.5137255), (0, 1, 0.5137255), (0, 1, 0.5137255), (0, 1, 0.5372549), (0, 1, 0.5372549), (0, 1, 0.5372549), (0, 1, 0.5372549), (0, 1, 0.99607843), (0, 1, 0.6117647), (0, 1, 0.6117647), (0, 0.007843138, 1), (0, 1, 0.63529414), (0, 1, 0.63529414), (0, 1, 0.63529414), (0, 1, 0.63529414), (0, 1, 0.65882355), (0, 1, 0.65882355), (0, 1, 0.65882355), (0, 1, 0.68235296), (0, 1, 0.68235296), (0, 1, 0.68235296), (0, 1, 0.7058824), (0, 1, 0.7058824), (0, 1, 0.99607843), (0, 1, 0.7490196), (0, 1, 0.76862746), (0, 0.003921569, 1), (0, 1, 0.76862746), (0, 1, 0.76862746), (0, 1, 0.7882353), (0, 1, 0.7882353), (0, 1, 0.7882353), (0, 1, 0.80784315), (0, 1, 0.80784315), (0, 1, 0.80784315), (0, 1, 0.80784315), (0, 1, 0.827451), (0, 1, 0.827451), (0, 1, 0.827451), (0, 1, 0.99607843), (0, 1, 0.8784314), (0, 1, 0.8784314), (0, 0.003921569, 1), (0, 1, 0.89411765), (0, 1, 0.89411765), (0, 1, 0.89411765), (0, 1, 0.89411765), (0, 1, 0.9098039), (0, 1, 0.9098039), (0, 1, 0.9098039), (0, 1, 0.92156863), (0, 1, 0.92156863), (0, 1, 0.92156863), (0, 1, 0.9372549), (0, 1, 0.9372549), (0, 1, 0.99607843), (0, 1, 0.98039216), (0, 1, 0.98039216), (0, 1, 0.99215686), (0, 1, 0.98039216), (0, 1, 0.98039216), (0, 1, 0.9882353), (0, 1, 0.9882353), (0, 1, 0.9882353), (0, 0.003921569, 1), (0, 0, 1), (0, 0, 1), (0, 0, 1), (0, 0, 1), (0, 0, 1), (0, 0, 1), (0, 0.99607843, 1), (0, 0, 1), (0, 0.28627452, 1), (0, 0.28627452, 1), (0, 0.30980393, 1), (0, 0.30980393, 1), (0, 0.30980393, 1), (0, 0.33333334, 1), (0, 0.33333334, 1), (0, 0.33333334, 1), (0, 0.5019608, 1), (0, 0.5019608, 1), (0, 0, 1), (0, 0.5254902, 1), (0, 0.54901963, 1), (0, 0.54901963, 1), (0, 0.5764706, 1), (0, 0.5764706, 1), (0, 0.6, 1), (0, 0.87058824, 1), (0, 0.8, 1), (0, 0.8, 1), (0, 0, 1), (0, 0.81960785, 1), (0, 0.81960785, 1), (0, 0.81960785, 1), (0, 0.8352941, 1), (0, 0.8352941, 1), (0, 0.8352941, 1), (0, 0.38039216, 1), (0, 0.9882353, 1), (0, 0, 1), (0, 0.9607843, 1), (0, 0.972549, 1), (0, 0.972549, 1), (0, 0.972549, 1), (0, 0.9764706, 1), (0, 0.9764706, 1), (0, 0.9764706, 1), (0, 0.9843137, 1), (0, 0.69411767, 1), (0, 0.9882353, 1), (0, 0.9882353, 1), (0, 0.9843137, 1), (0, 0.9843137, 1), (0, 0.9843137, 1), (0, 0.87058824, 1), (0, 0.85490197, 1), (0, 0.85490197, 1), (0, 0.85490197, 1), (0, 0.85490197, 1), (0, 0.67058825, 1), (0, 0.64705884, 1), (0, 0.64705884, 1), (0, 0.62352943, 1), (0, 0.62352943, 1), (0, 0.38039216, 1), (0, 0.35686275, 1), (0, 0.35686275, 1), (0, 0.35686275, 1), (0, 0.33333334, 1)] (
        interpolation = "vertex"
    )
}

